<svg fill="#f8f9fa" xmlns="http://www.w3.org/2000/svg" viewBox="0 0 32 32" width="32px" height="32px"><path d="M 16 3 C 8.82 3 3 8.82 3 16 C 3 23.18 8.82 29 16 29 C 23.18 29 29 23.18 29 16 C 29 8.82 23.18 3 16 3 z M 16 5 C 22.065 5 27 9.935 27 16 C 27 22.065 22.065 27 16 27 C 9.935 27 5 22.065 5 16 C 5 9.935 9.935 5 16 5 z M 24.251953 11.628906 C 23.978953 11.629156 23.704187 11.641063 23.617188 11.664062 L 23.482422 11.699219 L 23.517578 13.449219 C 23.536578 14.412219 23.567937 15.493516 23.585938 15.853516 L 23.617188 16.509766 L 24.886719 16.509766 L 24.921875 14.722656 C 24.941875 13.739656 24.971328 12.656406 24.986328 12.316406 C 25.013328 11.715406 25.009812 11.696109 24.882812 11.662109 C 24.796813 11.639109 24.524953 11.628656 24.251953 11.628906 z M 9.3027344 13.605469 C 8.9447344 13.625219 8.5963125 13.687156 8.3828125 13.785156 C 7.3448125 14.261156 6.8155937 15.480031 7.0585938 16.832031 C 7.2505938 17.903031 7.8274844 18.5685 8.7714844 18.8125 C 9.1774844 18.9175 10.060562 18.865938 10.476562 18.710938 C 11.131563 18.468937 11.696375 17.764328 11.859375 16.986328 C 11.963375 16.491328 11.902188 15.511609 11.742188 15.099609 C 11.461188 14.375609 10.942297 13.872641 10.279297 13.681641 C 10.028797 13.609641 9.6607344 13.585719 9.3027344 13.605469 z M 14.488281 13.609375 C 13.989281 13.658375 13.451937 13.929906 13.210938 14.253906 C 12.993937 14.545906 12.888453 14.975422 12.939453 15.357422 C 13.028453 16.026422 13.344062 16.299859 14.414062 16.630859 C 15.100062 16.842859 15.263672 16.964672 15.263672 17.263672 C 15.263672 17.527672 15.094891 17.690969 14.712891 17.792969 C 14.431891 17.868969 13.830063 17.825172 13.414062 17.701172 C 13.257062 17.654172 13.106078 17.630484 13.080078 17.646484 C 13.033078 17.675484 12.897125 18.114031 12.828125 18.457031 C 12.792125 18.634031 12.793406 18.635422 13.191406 18.732422 C 13.411406 18.786422 13.655328 18.841469 13.736328 18.855469 C 13.816328 18.870469 14.148656 18.874281 14.472656 18.863281 C 15.396656 18.833281 16.036484 18.531078 16.396484 17.955078 C 16.683484 17.496078 16.685344 16.785516 16.402344 16.353516 C 16.196344 16.038516 15.969062 15.898875 15.289062 15.671875 C 14.403062 15.376875 14.324219 15.326547 14.324219 15.060547 C 14.324219 14.727547 14.475234 14.624562 14.990234 14.601562 C 15.276234 14.589563 15.537641 14.617359 15.806641 14.693359 L 16.201172 14.804688 L 16.291016 14.535156 C 16.341016 14.388156 16.388484 14.167922 16.396484 14.044922 C 16.410484 13.826922 16.404484 13.818234 16.146484 13.740234 C 15.778484 13.628234 14.958281 13.563375 14.488281 13.609375 z M 17.666016 13.660156 L 17.683594 15.535156 L 17.701172 17.408203 L 17.871094 17.773438 C 18.150094 18.372438 18.639375 18.719031 19.359375 18.832031 C 19.898375 18.916031 20.982703 18.85975 21.595703 18.71875 L 22.138672 18.591797 L 22.138672 16.693359 C 22.138672 15.649359 22.120609 14.540516 22.099609 14.228516 L 22.0625 13.660156 L 20.787109 13.660156 L 20.785156 14.837891 C 20.784156 16.099891 20.7315 17.680516 20.6875 17.728516 C 20.6725 17.744516 20.443687 17.757812 20.179688 17.757812 C 19.600687 17.757812 19.349875 17.641969 19.171875 17.292969 C 19.063875 17.079969 19.052156 16.925328 19.035156 15.361328 L 19.017578 13.660156 L 17.666016 13.660156 z M 9.4433594 14.648438 C 9.8923594 14.648437 10.142125 14.789484 10.328125 15.146484 C 10.451125 15.383484 10.477094 15.526406 10.496094 16.066406 C 10.531094 17.060406 10.371063 17.525766 9.9140625 17.759766 C 9.8220625 17.806766 9.6046406 17.844703 9.4316406 17.845703 C 9.0466406 17.845703 8.779375 17.689281 8.609375 17.363281 C 8.438375 17.035281 8.3575937 16.320109 8.4335938 15.787109 C 8.5475938 14.981109 8.8433594 14.648438 9.4433594 14.648438 z M 24.263672 17.322266 C 23.786672 17.322266 23.605687 17.344297 23.554688 17.404297 C 23.509688 17.457297 23.492906 17.700234 23.503906 18.115234 L 23.519531 18.744141 L 23.695312 18.785156 C 23.920312 18.837156 24.883359 18.811906 24.943359 18.753906 C 25.000359 18.696906 25.002312 17.562781 24.945312 17.425781 C 24.909312 17.337781 24.818672 17.322266 24.263672 17.322266 z"/></svg>